<?xml version="1.0" encoding="UTF-8" standalone="no"?>
<!DOCTYPE svg PUBLIC "-//W3C//DTD SVG 1.1//EN" "http://www.w3.org/Graphics/SVG/1.1/DTD/svg11.dtd">
<svg xmlns="http://www.w3.org/2000/svg" version="1.1" viewBox="0.00 0.00 48.00 48.00">
<g stroke-width="2.00" fill="none" stroke-linecap="butt">
<path stroke="#6fbe4d" vector-effect="non-scaling-stroke" d="
  M 14.49 33.43
  L 14.47 34.01
  A 0.63 0.63 0.0 0 0 14.98 34.65
  Q 18.54 35.33 22.07 34.14"
/>
<path stroke="#3f6d2c" vector-effect="non-scaling-stroke" d="
  M 22.07 34.14
  L 21.83 40.02
  A 1.30 1.30 0.0 0 0 23.13 41.38
  L 38.16 41.38
  A 0.38 0.38 0.0 0 0 38.53 40.93
  L 37.95 37.85
  A 0.96 0.95 -4.7 0 0 37.02 37.07
  Q 32.69 37.01 28.28 36.92
  Q 27.80 36.91 27.23 36.49"
/>
<path stroke="#63ad41" vector-effect="non-scaling-stroke" d="
  M 27.23 36.49
  L 28.11 35.27
  A 1.18 1.14 5.4 0 1 28.61 34.87
  Q 30.30 34.12 29.70 31.79
  Q 29.09 29.45 28.07 29.16"
/>
<path stroke="#3f6d2c" vector-effect="non-scaling-stroke" d="
  M 28.07 29.16
  Q 27.64 28.99 27.29 28.71
  A 0.67 0.66 20.1 0 1 27.05 28.20
  L 27.05 17.96
  A 1.07 1.07 0.0 0 0 25.98 16.89
  L 22.58 16.89
  A 0.70 0.69 90.0 0 0 21.89 17.59
  L 21.89 28.31
  A 0.55 0.55 0.0 0 1 21.42 28.85
  L 18.21 29.27"
/>
<path stroke="#63ad41" vector-effect="non-scaling-stroke" d="
  M 18.21 29.27
  Q 20.04 19.09 19.10 11.23
  Q 18.93 9.84 17.88 10.07"
/>
<path stroke="#3f6d2c" vector-effect="non-scaling-stroke" d="
  M 17.88 10.07
  L 17.65 9.47
  A 0.93 0.91 -9.9 0 0 16.78 8.87
  L 13.49 8.87
  A 0.61 0.61 0.0 0 0 12.88 9.48
  L 12.88 32.32
  A 0.61 0.61 0.0 0 0 13.38 32.92
  Q 14.11 33.06 14.49 33.43"
/>
<path stroke="#244016" vector-effect="non-scaling-stroke" d="
  M 17.88 10.07
  Q 16.99 19.52 18.21 29.27"
/>
<path stroke="#244016" vector-effect="non-scaling-stroke" d="
  M 28.07 29.16
  L 28.48 31.92
  A 1.15 1.13 -24.0 0 1 28.07 32.96
  Q 27.54 33.38 27.24 33.43
  A 0.75 0.74 -3.4 0 0 26.62 34.12
  L 26.50 36.04
  A 0.55 0.55 0.0 0 0 26.61 36.40
  Q 26.90 36.79 27.23 36.49"
/>
<path stroke="#305121" vector-effect="non-scaling-stroke" d="
  M 22.07 34.14
  Q 19.99 32.34 14.49 33.43"
/>
</g>
<path fill="#7ed957" d="
  M 48.00 0.00
  L 48.00 48.00
  L 0.00 48.00
  L 0.00 0.00
  L 48.00 0.00
  Z
  M 14.49 33.43
  L 14.47 34.01
  A 0.63 0.63 0.0 0 0 14.98 34.65
  Q 18.54 35.33 22.07 34.14
  L 21.83 40.02
  A 1.30 1.30 0.0 0 0 23.13 41.38
  L 38.16 41.38
  A 0.38 0.38 0.0 0 0 38.53 40.93
  L 37.95 37.85
  A 0.96 0.95 -4.7 0 0 37.02 37.07
  Q 32.69 37.01 28.28 36.92
  Q 27.80 36.91 27.23 36.49
  L 28.11 35.27
  A 1.18 1.14 5.4 0 1 28.61 34.87
  Q 30.30 34.12 29.70 31.79
  Q 29.09 29.45 28.07 29.16
  Q 27.64 28.99 27.29 28.71
  A 0.67 0.66 20.1 0 1 27.05 28.20
  L 27.05 17.96
  A 1.07 1.07 0.0 0 0 25.98 16.89
  L 22.58 16.89
  A 0.70 0.69 90.0 0 0 21.89 17.59
  L 21.89 28.31
  A 0.55 0.55 0.0 0 1 21.42 28.85
  L 18.21 29.27
  Q 20.04 19.09 19.10 11.23
  Q 18.93 9.84 17.88 10.07
  L 17.65 9.47
  A 0.93 0.91 -9.9 0 0 16.78 8.87
  L 13.49 8.87
  A 0.61 0.61 0.0 0 0 12.88 9.48
  L 12.88 32.32
  A 0.61 0.61 0.0 0 0 13.38 32.92
  Q 14.11 33.06 14.49 33.43
  Z"
/>
<path fill="#000000" d="
  M 17.88 10.07
  Q 16.99 19.52 18.21 29.27
  L 21.42 28.85
  A 0.55 0.55 0.0 0 0 21.89 28.31
  L 21.89 17.59
  A 0.70 0.69 -90.0 0 1 22.58 16.89
  L 25.98 16.89
  A 1.07 1.07 0.0 0 1 27.05 17.96
  L 27.05 28.20
  A 0.67 0.66 20.1 0 0 27.29 28.71
  Q 27.64 28.99 28.07 29.16
  L 28.48 31.92
  A 1.15 1.13 -24.0 0 1 28.07 32.96
  Q 27.54 33.38 27.24 33.43
  A 0.75 0.74 -3.4 0 0 26.62 34.12
  L 26.50 36.04
  A 0.55 0.55 0.0 0 0 26.61 36.40
  Q 26.90 36.79 27.23 36.49
  Q 27.80 36.91 28.28 36.92
  Q 32.69 37.01 37.02 37.07
  A 0.96 0.95 -4.7 0 1 37.95 37.85
  L 38.53 40.93
  A 0.38 0.38 0.0 0 1 38.16 41.38
  L 23.13 41.38
  A 1.30 1.30 0.0 0 1 21.83 40.02
  L 22.07 34.14
  Q 19.99 32.34 14.49 33.43
  Q 14.11 33.06 13.38 32.92
  A 0.61 0.61 0.0 0 1 12.88 32.32
  L 12.88 9.48
  A 0.61 0.61 0.0 0 1 13.49 8.87
  L 16.78 8.87
  A 0.93 0.91 -9.9 0 1 17.65 9.47
  L 17.88 10.07
  Z"
/>
<path fill="#48802b" d="
  M 18.21 29.27
  Q 16.99 19.52 17.88 10.07
  Q 18.93 9.84 19.10 11.23
  Q 20.04 19.09 18.21 29.27
  Z"
/>
<path fill="#48802b" d="
  M 27.23 36.49
  Q 26.90 36.79 26.61 36.40
  A 0.55 0.55 0.0 0 1 26.50 36.04
  L 26.62 34.12
  A 0.75 0.74 -3.4 0 1 27.24 33.43
  Q 27.54 33.38 28.07 32.96
  A 1.15 1.13 -24.0 0 0 28.48 31.92
  L 28.07 29.16
  Q 29.09 29.45 29.70 31.79
  Q 30.30 34.12 28.61 34.87
  A 1.18 1.14 5.4 0 0 28.11 35.27
  L 27.23 36.49
  Z"
/>
<path fill="#60a242" d="
  M 22.07 34.14
  Q 18.54 35.33 14.98 34.65
  A 0.63 0.63 0.0 0 1 14.47 34.01
  L 14.49 33.43
  Q 19.99 32.34 22.07 34.14
  Z"
/>
</svg>
